<?xml version="1.0" encoding="UTF-8"?>
<svg width="32px" height="32px" viewBox="0 0 32 32" version="1.1" xmlns="http://www.w3.org/2000/svg" xmlns:xlink="http://www.w3.org/1999/xlink">
    <title>输送机左</title>
    <defs>
        <linearGradient x1="0%" y1="40.6822205%" x2="100%" y2="40.6822205%" id="linearGradient-1">
            <stop stop-color="#9FB3C0" offset="0%"></stop>
            <stop stop-color="#D1E8EE" offset="100%"></stop>
        </linearGradient>
    </defs>
    <g id="页面-1" stroke="none" stroke-width="1" fill="none" fill-rule="evenodd">
        <g id="画板" transform="translate(-130.000000, -92.000000)">
            <g id="输送机左" transform="translate(146.000000, 108.000000) rotate(-180.000000) translate(-146.000000, -108.000000) translate(130.000000, 92.000000)">
                <rect id="矩形" fill="#DAF7BC" x="0" y="0" width="32" height="32"></rect>
                <path d="M4,1 L10,1 L10,2 L11,2 L11,3 L3,3 L3,2 L4,2 L4,1 Z" id="形状结合" fill="#3E4551"></path>
                <path d="M4,29 L10,29 L10,30 L11,30 L11,31 L3,31 L3,30 L4,30 L4,29 Z" id="形状结合备份-2" fill="#3E4551" transform="translate(7.000000, 30.000000) scale(1, -1) translate(-7.000000, -30.000000) "></path>
                <path d="M22,1 L28,1 L28,2 L29,2 L29,3 L21,3 L21,2 L22,2 L22,1 Z" id="形状结合备份" fill="#3E4551"></path>
                <path d="M22,29 L28,29 L28,30 L29,30 L29,31 L21,31 L21,30 L22,30 L22,29 Z" id="形状结合备份-3" fill="#3E4551" transform="translate(25.000000, 30.000000) scale(1, -1) translate(-25.000000, -30.000000) "></path>
                <rect id="矩形" fill="#277D02" x="0" y="0" width="32" height="1"></rect>
                <rect id="矩形" fill="#277D02" x="0" y="31" width="32" height="1"></rect>
                <g id="编组" transform="translate(4.000000, 3.000000)">
                    <rect id="矩形" fill="url(#linearGradient-1)" x="0" y="0" width="6" height="26"></rect>
                    <rect id="矩形" fill="#91ADBD" x="0" y="0" width="2" height="26"></rect>
                    <rect id="矩形备份-15" fill="#D3E6ED" x="5" y="0" width="1" height="26"></rect>
                </g>
                <g id="编组备份" transform="translate(22.000000, 3.000000)">
                    <rect id="矩形" fill="url(#linearGradient-1)" x="0" y="0" width="6" height="26"></rect>
                    <rect id="矩形" fill="#91ADBD" x="0" y="0" width="2" height="26"></rect>
                    <rect id="矩形备份-15" fill="#D3E6ED" x="5" y="0" width="1" height="26"></rect>
                </g>
                <g id="箭头上" transform="translate(16.000000, 16.500000) rotate(-90.000000) translate(-16.000000, -16.500000) translate(11.000000, 8.000000)" fill-rule="nonzero">
                    <polygon id="路径" fill="#FFB514" points="8 0 8 11 10 11 5 17 0 11 2 11 2 0"></polygon>
                    <polygon id="路径" fill="#FFC83D" points="7 1 3 1 3 12 2.135 12 5 15.437 7.864 12 7 12"></polygon>
                </g>
            </g>
        </g>
    </g>
</svg>