<?xml version="1.0" encoding="UTF-8"?>
<svg width="32px" height="32px" viewBox="0 0 32 32" version="1.1" xmlns="http://www.w3.org/2000/svg" xmlns:xlink="http://www.w3.org/1999/xlink">
    <title>堆垛机</title>
    <defs>
        <linearGradient x1="0%" y1="50%" x2="100%" y2="50%" id="linearGradient-1">
            <stop stop-color="#FFE893" offset="0%"></stop>
            <stop stop-color="#FFCF40" offset="100%"></stop>
        </linearGradient>
        <linearGradient x1="0%" y1="50%" x2="100%" y2="50%" id="linearGradient-2">
            <stop stop-color="#FFE893" offset="0%"></stop>
            <stop stop-color="#FFD85E" offset="63.0024433%"></stop>
            <stop stop-color="#FFCF40" offset="100%"></stop>
        </linearGradient>
        <linearGradient x1="0%" y1="50%" x2="100%" y2="50%" id="linearGradient-3">
            <stop stop-color="#FFE893" offset="0%"></stop>
            <stop stop-color="#FFCF40" offset="100%"></stop>
        </linearGradient>
    </defs>
    <g id="页面-1" stroke="none" stroke-width="1" fill="none" fill-rule="evenodd">
        <g id="画板" transform="translate(-206.000000, -92.000000)">
            <g id="堆垛机" transform="translate(206.000000, 92.000000)">
                <rect id="矩形" stroke="#FFB514" fill="url(#linearGradient-1)" x="0.5" y="0.5" width="9" height="31"></rect>
                <rect id="矩形" stroke="#FFB514" fill="url(#linearGradient-2)" x="0.5" y="5.5" width="31" height="21"></rect>
                <rect id="矩形" fill="#FFC83D" x="6" y="1" width="3" height="30"></rect>
                <rect id="矩形备份-12" fill="#FFF2B8" x="1" y="1" width="1" height="30"></rect>
                <rect id="矩形" stroke="#FFB514" fill="url(#linearGradient-3)" x="0.5" y="5.5" width="9" height="21"></rect>
                <rect id="矩形备份-9" fill="#FFC83D" x="18" y="6" width="3" height="20"></rect>
                <rect id="矩形备份-10" fill="#FFC83D" x="25" y="6" width="3" height="20"></rect>
                <rect id="矩形" fill="#D99009" x="18" y="3" width="2" height="9"></rect>
                <rect id="矩形备份-2" fill="#D99009" x="18" y="20" width="2" height="9"></rect>
                <rect id="矩形备份" fill="#D99009" x="25" y="3" width="2" height="9"></rect>
                <rect id="矩形备份-6" fill="#D99009" x="25" y="20" width="2" height="9"></rect>
                <rect id="矩形" fill="#FFC83D" x="6" y="6" width="3" height="20"></rect>
                <rect id="矩形备份-11" fill="#FFF2B8" x="1" y="6" width="1" height="20"></rect>
            </g>
        </g>
    </g>
</svg>